<svg xmlns="http://www.w3.org/2000/svg" viewBox="0 0 1600 1000" role="img" aria-label="MAXLIVIN venue interior">
  <defs>
    <linearGradient id="wall" x1="0" x2="1" y1="0" y2="1"><stop offset="0" stop-color="#fffdf6"/><stop offset=".6" stop-color="#e7dfcf"/><stop offset="1" stop-color="#c9bda7"/></linearGradient>
    <linearGradient id="floor" x1="0" x2="1"><stop offset="0" stop-color="#5d5145"/><stop offset="1" stop-color="#2c2926"/></linearGradient>
  </defs>
  <rect width="1600" height="1000" fill="url(#wall)"/>
  <polygon points="0,660 1600,560 1600,1000 0,1000" fill="url(#floor)"/>
  <rect x="145" y="120" width="370" height="430" rx="12" fill="#f8f5eb" stroke="#cfc5b4" stroke-width="8"/>
  <rect x="1085" y="115" width="330" height="440" rx="12" fill="#f8f5eb" stroke="#cfc5b4" stroke-width="8"/>
  <rect x="220" y="205" width="220" height="180" fill="#c8102e" opacity=".92"/>
  <text x="254" y="310" fill="#fff" font-family="Arial, Helvetica, sans-serif" font-size="46" font-weight="800">MAX</text>
  <rect x="600" y="180" width="390" height="250" rx="10" fill="#202020"/>
  <rect x="624" y="204" width="342" height="202" fill="#f3efe4"/>
  <rect x="430" y="625" width="500" height="115" rx="28" fill="#b6aa98"/>
  <rect x="500" y="585" width="360" height="90" rx="24" fill="#d8d0c2"/>
  <rect x="1010" y="620" width="280" height="170" rx="18" fill="#272727"/>
  <rect x="1045" y="585" width="210" height="70" rx="14" fill="#49433c"/>
  <circle cx="1235" cy="725" r="58" fill="#c8102e"/>
  <rect x="645" y="742" width="290" height="78" rx="12" fill="#1c1b19"/>
  <rect width="1600" height="1000" fill="#1c1b19" opacity=".18"/>
</svg>
