<svg xmlns="http://www.w3.org/2000/svg" viewBox="0 0 900 900" role="img" aria-label="Training seats">
  <rect width="900" height="900" fill="#f2eee5"/>
  <g fill="#1c1b19">
    <rect x="120" y="190" width="160" height="72" rx="10"/><rect x="370" y="190" width="160" height="72" rx="10"/><rect x="620" y="190" width="160" height="72" rx="10"/>
    <rect x="120" y="380" width="160" height="72" rx="10"/><rect x="370" y="380" width="160" height="72" rx="10"/><rect x="620" y="380" width="160" height="72" rx="10"/>
    <rect x="120" y="570" width="160" height="72" rx="10"/><rect x="370" y="570" width="160" height="72" rx="10"/><rect x="620" y="570" width="160" height="72" rx="10"/>
  </g>
  <g fill="#d2c7b8">
    <rect x="150" y="135" width="100" height="56" rx="10"/><rect x="400" y="135" width="100" height="56" rx="10"/><rect x="650" y="135" width="100" height="56" rx="10"/>
    <rect x="150" y="325" width="100" height="56" rx="10"/><rect x="400" y="325" width="100" height="56" rx="10"/><rect x="650" y="325" width="100" height="56" rx="10"/>
    <rect x="150" y="515" width="100" height="56" rx="10"/><rect x="400" y="515" width="100" height="56" rx="10"/><rect x="650" y="515" width="100" height="56" rx="10"/>
  </g>
  <circle cx="450" cy="760" r="66" fill="#c8102e"/>
  <text x="403" y="780" fill="#fff" font-family="Arial" font-size="42" font-weight="800">MAX</text>
</svg>
